<?xml version="1.0" encoding="iso-8859-1"?>
<!-- Generator: Adobe Illustrator 16.0.0, SVG Export Plug-In . SVG Version: 6.00 Build 0)  -->
<!DOCTYPE svg PUBLIC "-//W3C//DTD SVG 1.1//EN" "http://www.w3.org/Graphics/SVG/1.1/DTD/svg11.dtd">
<svg version="1.1" id="Capa_1" xmlns="http://www.w3.org/2000/svg" xmlns:xlink="http://www.w3.org/1999/xlink" x="0px" y="0px"
	 width="68.676px" height="68.676px" viewBox="0 0 68.676 68.676" style="enable-background:new 0 0 68.676 68.676;"
	 xml:space="preserve">
<g>
	<g>
		<path d="M67.682,30.152L53.396,19.15V7.685c0-1.404-1.14-2.544-2.544-2.544s-2.544,1.14-2.544,2.544v7.547L35.888,5.669
			c-0.914-0.704-2.188-0.704-3.104,0L0.991,30.152c-1.112,0.856-1.32,2.453-0.463,3.565c0.857,1.113,2.454,1.32,3.567,0.464
			l2.793-2.15v28.961c0,1.402,1.14,2.543,2.544,2.543h49.491c1.402,0,2.545-1.141,2.545-2.543V31.785l3.111,2.396
			c0.463,0.356,1.008,0.529,1.549,0.529c0.763,0,1.517-0.343,2.019-0.993C69.004,32.604,68.797,31.008,67.682,30.152z
			 M34.337,56.205c-9.247,0-16.744-7.498-16.744-16.743c0-9.248,7.497-16.745,16.744-16.745c9.249,0,16.745,7.497,16.745,16.745
			C51.082,48.707,43.586,56.205,34.337,56.205z"/>
		<path d="M36.024,37.283c-2.568-0.969-3.627-1.604-3.627-2.603c0-0.846,0.635-1.692,2.601-1.692c2.175,0,3.566,0.695,4.354,1.027
			L40.23,30.6c-0.998-0.483-2.357-0.906-4.386-0.997v-2.66h-2.962v2.872c-3.234,0.634-5.107,2.721-5.107,5.381
			c0,2.933,2.205,4.443,5.441,5.532c2.236,0.757,3.206,1.479,3.206,2.629c0,1.21-1.181,1.875-2.901,1.875
			c-1.965,0-3.749-0.636-5.019-1.329l-0.906,3.535c1.148,0.665,3.113,1.209,5.139,1.301v2.873h2.963v-3.084
			c3.477-0.604,5.381-2.902,5.381-5.594C41.073,40.213,39.623,38.551,36.024,37.283z"/>
	</g>
</g>
<g>
</g>
<g>
</g>
<g>
</g>
<g>
</g>
<g>
</g>
<g>
</g>
<g>
</g>
<g>
</g>
<g>
</g>
<g>
</g>
<g>
</g>
<g>
</g>
<g>
</g>
<g>
</g>
<g>
</g>
</svg>
